<svg width="299" height="96" viewBox="0 0 299 96" fill="none" xmlns="http://www.w3.org/2000/svg">
<g clip-path="url(#clip0_45_118)">
<path d="M97.9924 0H8.25199C3.69454 0 0 3.68941 0 8.24053V87.5556C0 92.1067 3.69454 95.7961 8.25199 95.7961H97.9924C102.55 95.7961 106.244 92.1067 106.244 87.5556V8.24053C106.244 3.68941 102.55 0 97.9924 0Z" fill="#537FE7"/>
<path d="M41.2732 30.1773C38.4035 30.242 35.9504 32.1186 33.9138 35.7978C31.7754 39.9392 30.7201 44.5428 30.7386 49.6086C30.7757 50.2187 30.8405 50.2741 30.9423 49.7842C31.8032 46.0588 32.7011 43.1469 33.6361 41.0392C34.5525 38.9223 35.5708 37.1844 36.6817 35.844C39.2366 32.8766 41.449 32.3959 43.3282 34.4019C45.3833 36.7684 46.4756 40.7619 46.6052 46.3639C46.4941 53.8979 45.5036 59.5923 43.6337 63.4656C41.2917 68.1801 38.8848 69.7516 36.441 68.1616C33.1084 65.5086 31.257 59.6293 30.8867 50.5422C30.7572 50.2279 30.6368 50.459 30.5442 51.2355C30.3684 52.1784 30.248 53.2138 30.174 54.3139C29.8962 59.2502 30.5535 63.4379 32.1365 66.8767C33.7564 70.1399 35.9133 71.7946 38.6071 71.8501C41.5138 71.8038 44.1613 69.9088 46.5589 66.1464C48.9472 62.2176 50.4839 57.4291 51.1597 51.7625C51.4096 45.7353 50.595 40.6047 48.7251 36.3709C46.8366 32.3404 44.365 30.2697 41.3194 30.1588" fill="white"/>
<path d="M62.5644 27.9402C61.074 25.4997 58.2229 24.3072 54.0109 24.3812C49.3546 24.603 44.8279 25.9897 40.4401 28.5411C39.931 28.8738 39.9124 28.9663 40.3846 28.8091C44.0503 27.6906 47.0219 27.0065 49.3083 26.7662C51.6041 26.4981 53.6129 26.5073 55.3347 26.8031C59.1856 27.5334 60.713 29.2066 59.9077 31.832C58.8801 34.7901 55.9642 37.7298 51.169 40.6509C44.578 44.3209 39.1441 46.3176 34.8581 46.6319C29.5908 46.9647 27.0359 45.6705 27.1933 42.7586C27.8505 38.5433 32.0162 34.0044 39.7088 29.1327C39.9124 28.8646 39.6532 28.8831 38.9405 29.1881C38.0333 29.5117 37.0798 29.9184 36.08 30.4084C31.6644 32.6362 28.3504 35.2985 26.1657 38.3861C24.1477 41.4182 23.7867 44.1175 25.0827 46.4655C26.573 48.9522 29.5446 50.2926 34.0065 50.4867C38.6072 50.5884 43.5319 49.5253 48.7807 47.2698C54.1313 44.4688 58.1766 41.2056 60.9074 37.4709C63.4624 33.8195 64.0178 30.6487 62.5922 27.9587" fill="white"/>
<path d="M75.1539 45.2359C76.524 42.7215 76.1352 39.6616 73.9598 36.0564C71.4326 32.1369 67.9705 28.9199 63.5641 26.4055C63.018 26.1282 62.9346 26.1559 63.3049 26.4887C66.1098 29.0955 68.1834 31.3326 69.5442 33.1815C70.9235 35.0395 71.9232 36.7774 72.5249 38.4137C73.8209 42.1113 73.1266 44.2652 70.4514 44.8753C67.3688 45.467 63.3697 44.4131 58.4357 41.7323C51.965 37.8683 47.5124 34.1613 45.0871 30.6208C42.1711 26.2298 42.0137 23.3734 44.615 22.0515C48.5862 20.4984 54.6033 21.8389 62.6754 26.0634C63.0087 26.1004 62.8698 25.8878 62.2404 25.4256C61.5091 24.797 60.6759 24.1776 59.7502 23.5583C55.6123 20.8497 51.6503 19.3244 47.8734 18.9732C44.2354 18.7421 41.7175 19.7774 40.3197 22.0792C38.9034 24.6121 39.2274 27.8568 41.2917 31.8041C43.5041 35.8345 46.8922 39.5599 51.4652 42.9711C56.5658 46.1973 61.4257 48.0646 66.0265 48.5545C70.4699 48.9335 73.5062 47.8335 75.1169 45.2544" fill="white"/>
<path d="M66.4525 64.7688C69.3221 64.7041 71.7753 62.8275 73.8118 59.1484C75.9502 55.007 77.0055 50.4034 76.987 45.3376C76.9499 44.7274 76.8851 44.672 76.7833 45.1619C75.9224 48.8873 75.0245 51.7992 74.0895 53.9069C73.1731 56.0238 72.1548 57.7617 71.0439 59.1021C68.489 62.0695 66.2766 62.5502 64.3974 60.5442C62.3423 58.1777 61.25 54.1842 61.1204 48.5823C61.2315 41.0483 62.222 35.3539 64.0919 31.4805C66.4339 26.766 68.8408 25.1945 71.2846 26.7845C74.6172 29.4376 76.4686 35.3169 76.8389 44.4039C76.9685 44.7182 77.0888 44.4871 77.1814 43.7106C77.3573 42.7677 77.4776 41.7323 77.5517 40.6323C77.8294 35.6959 77.1721 31.5083 75.5892 28.0694C73.9692 24.8062 71.8123 23.1515 69.1185 23.0961C66.2118 23.1423 63.5643 25.0373 61.1667 28.7997C58.7784 32.7285 57.2417 37.517 56.5659 43.1837C56.316 49.2109 57.1306 54.3414 59.0005 58.5752C60.889 62.6057 63.3606 64.6764 66.4062 64.7873" fill="white"/>
<path d="M32.5716 49.7102C31.2016 52.2246 31.5904 55.2845 33.7658 58.8897C36.293 62.8092 39.7551 66.0262 44.1615 68.5406C44.7076 68.8179 44.7909 68.7902 44.4207 68.4574C41.6158 65.8506 39.5422 63.6135 38.1814 61.7646C36.8021 59.9066 35.8024 58.1687 35.2006 56.5324C33.9047 52.8348 34.5989 50.6809 37.2742 50.0707C40.3568 49.4791 44.3559 50.533 49.2899 53.2138C55.7605 57.0778 60.2132 60.7848 62.6385 64.3253C65.5545 68.7163 65.7119 71.5727 63.1106 72.8946C59.1394 74.4477 53.1223 73.1072 45.0501 68.8827C44.7169 68.8457 44.8557 69.0583 45.4852 69.5205C46.2165 70.1491 47.0497 70.7685 47.9754 71.3878C52.1133 74.0964 56.0753 75.6217 59.8521 75.9729C63.4902 76.204 66.0081 75.1687 67.4059 72.8669C68.8222 70.334 68.4982 67.0893 66.4339 63.142C64.2215 59.1116 60.8334 55.3862 56.2604 51.9751C51.1598 48.7488 46.2998 46.8815 41.6991 46.3916C37.2557 46.0126 34.2194 47.1126 32.6087 49.6917" fill="white"/>
<path d="M45.1612 67.0059C46.6516 69.4464 49.5028 70.6389 53.7147 70.5649C58.371 70.3431 62.8977 68.9565 67.2856 66.4051C67.7947 66.0723 67.8132 65.9798 67.3411 66.137C63.6753 67.2555 60.7038 67.9396 58.4173 68.1799C56.1216 68.448 54.1128 68.4388 52.391 68.143C48.5401 67.4127 47.0126 65.7395 47.818 63.1141C48.8455 60.156 51.7615 57.2163 56.5567 54.2952C63.1477 50.6252 68.5816 48.6285 72.8676 48.3142C78.1348 47.9814 80.6898 49.2756 80.5324 52.1875C79.8937 56.3936 75.728 60.9325 68.0261 65.8042C67.8225 66.0723 68.0817 66.0538 68.7945 65.7487C69.7017 65.4252 70.6551 65.0184 71.6549 64.5285C76.0705 62.3006 79.3845 59.6383 81.5692 56.5508C83.5872 53.5187 83.9482 50.8194 82.6523 48.4714C81.1619 45.9847 78.1904 44.6443 73.7377 44.4501C69.137 44.3485 64.2122 45.4115 58.9635 47.6671C53.6129 50.4681 49.5676 53.7313 46.8368 57.4659C44.2818 61.1174 43.7264 64.2881 45.152 66.9782" fill="white"/>
<path d="M131.497 66.2277H127.024C126.924 65.7286 126.874 65.2129 126.874 64.6805C126.874 64.1481 126.924 63.6324 127.024 63.1333H139.644C139.744 63.6324 139.794 64.1481 139.794 64.6805C139.794 65.2129 139.744 65.7286 139.644 66.2277H135.171V81.0756L134.271 81.1504C133.971 81.1837 133.68 81.2004 133.397 81.2004C133.113 81.2004 132.809 81.192 132.484 81.1754C132.16 81.1588 131.831 81.1255 131.497 81.0756V66.2277ZM149.49 81.375C148.14 81.375 146.974 81.1421 145.991 80.6763C145.008 80.2105 144.2 79.5658 143.567 78.7423C142.934 77.9188 142.463 76.9456 142.155 75.8227C141.847 74.6997 141.693 73.4728 141.693 72.1419C141.693 70.811 141.847 69.5757 142.155 68.4361C142.463 67.2966 142.934 66.3109 143.567 65.479C144.2 64.6472 145.008 63.9984 145.991 63.5326C146.974 63.0668 148.14 62.8339 149.49 62.8339C150.839 62.8339 152.005 63.0668 152.988 63.5326C153.971 63.9984 154.779 64.6472 155.412 65.479C156.045 66.3109 156.516 67.2966 156.824 68.4361C157.132 69.5757 157.286 70.811 157.286 72.1419C157.286 73.4728 157.132 74.6997 156.824 75.8227C156.516 76.9456 156.045 77.9188 155.412 78.7423C154.779 79.5658 153.971 80.2105 152.988 80.6763C152.005 81.1421 150.839 81.375 149.49 81.375ZM149.49 78.3306C152.072 78.3306 153.363 76.2677 153.363 72.1419C153.363 70.079 153.051 68.5318 152.426 67.5003C151.801 66.4689 150.831 65.9532 149.515 65.9532C146.899 65.9532 145.591 68.0161 145.591 72.1419C145.591 76.2677 146.891 78.3306 149.49 78.3306ZM169.306 66.2277H164.833C164.733 65.7286 164.683 65.2129 164.683 64.6805C164.683 64.1481 164.733 63.6324 164.833 63.1333H177.453C177.552 63.6324 177.602 64.1481 177.602 64.6805C177.602 65.2129 177.552 65.7286 177.453 66.2277H172.979V81.0756L172.08 81.1504C171.78 81.1837 171.488 81.2004 171.205 81.2004C170.922 81.2004 170.618 81.192 170.293 81.1754C169.968 81.1588 169.639 81.1255 169.306 81.0756V66.2277ZM179.976 63.1333C180.593 63.0335 181.201 62.9836 181.801 62.9836C182.4 62.9836 183.017 63.0335 183.65 63.1333V70.1705H189.672V63.1333C190.289 63.0335 190.897 62.9836 191.496 62.9836C192.096 62.9836 192.713 63.0335 193.346 63.1333V81.0756C192.713 81.1754 192.096 81.2253 191.496 81.2253C190.897 81.2253 190.289 81.1754 189.672 81.0756V73.3147H183.65V81.0756C183.017 81.1754 182.4 81.2253 181.801 81.2253C181.201 81.2253 180.593 81.1754 179.976 81.0756V63.1333ZM196.844 63.1333H207.04C207.14 63.6324 207.19 64.1481 207.19 64.6805C207.19 65.2129 207.14 65.7286 207.04 66.2277H200.493V70.1206H205.69C205.79 70.6529 205.84 71.177 205.84 71.6927C205.84 72.2084 205.79 72.7242 205.69 73.2399H200.493V77.9812H207.215C207.315 78.4803 207.365 78.996 207.365 79.5284C207.365 80.0608 207.315 80.5765 207.215 81.0756H196.844V63.1333ZM215.611 63.0585C216.377 62.9919 217.152 62.9378 217.935 62.8962C218.718 62.8547 219.518 62.8339 220.334 62.8339C221.15 62.8339 221.987 62.917 222.845 63.0834C223.703 63.2498 224.478 63.5617 225.169 64.0192C225.861 64.4767 226.423 65.113 226.856 65.9282C227.289 66.7434 227.506 67.7998 227.506 69.0974C227.506 70.3951 227.289 71.4473 226.856 72.2542C226.423 73.061 225.865 73.6974 225.182 74.1632C224.499 74.629 223.737 74.9451 222.895 75.1115C222.054 75.2778 221.225 75.361 220.409 75.361L219.809 75.3361C219.609 75.3361 219.426 75.3277 219.259 75.3111V81.0756C218.943 81.1255 218.635 81.1588 218.335 81.1754C218.035 81.192 217.748 81.2004 217.473 81.2004C217.198 81.2004 216.902 81.192 216.586 81.1754C216.269 81.1588 215.944 81.1255 215.611 81.0756V63.0585ZM219.259 72.2916C219.459 72.3249 219.651 72.3415 219.834 72.3415H220.459C220.875 72.3415 221.284 72.2875 221.683 72.1793C222.083 72.0712 222.437 71.8923 222.745 71.6428C223.054 71.3932 223.299 71.0647 223.483 70.6571C223.666 70.2495 223.758 69.7421 223.758 69.1349C223.758 68.5276 223.666 68.0119 223.483 67.5877C223.299 67.1635 223.054 66.8224 222.745 66.5646C222.437 66.3067 222.083 66.1237 221.683 66.0156C221.284 65.9074 220.875 65.8534 220.459 65.8534H219.959C219.793 65.87 219.559 65.8949 219.259 65.9282V72.2916ZM230.18 63.1333H240.375C240.475 63.6324 240.525 64.1481 240.525 64.6805C240.525 65.2129 240.475 65.7286 240.375 66.2277H233.828V70.1206H239.026C239.126 70.6529 239.176 71.177 239.176 71.6927C239.176 72.2084 239.126 72.7242 239.026 73.2399H233.828V77.9812H240.55C240.65 78.4803 240.7 78.996 240.7 79.5284C240.7 80.0608 240.65 80.5765 240.55 81.0756H230.18V63.1333ZM250.771 81.375C249.421 81.375 248.255 81.1421 247.272 80.6763C246.289 80.2105 245.481 79.5658 244.848 78.7423C244.215 77.9188 243.745 76.9456 243.437 75.8227C243.128 74.6997 242.974 73.4728 242.974 72.1419C242.974 70.811 243.128 69.5757 243.437 68.4361C243.745 67.2966 244.215 66.3109 244.848 65.479C245.481 64.6472 246.289 63.9984 247.272 63.5326C248.255 63.0668 249.421 62.8339 250.771 62.8339C252.12 62.8339 253.286 63.0668 254.269 63.5326C255.252 63.9984 256.06 64.6472 256.693 65.479C257.326 66.3109 257.797 67.2966 258.105 68.4361C258.413 69.5757 258.568 70.811 258.568 72.1419C258.568 73.4728 258.413 74.6997 258.105 75.8227C257.797 76.9456 257.326 77.9188 256.693 78.7423C256.06 79.5658 255.252 80.2105 254.269 80.6763C253.286 81.1421 252.12 81.375 250.771 81.375ZM250.771 78.3306C253.353 78.3306 254.644 76.2677 254.644 72.1419C254.644 70.079 254.332 68.5318 253.707 67.5003C253.082 66.4689 252.112 65.9532 250.796 65.9532C248.18 65.9532 246.873 68.0161 246.873 72.1419C246.873 76.2677 248.172 78.3306 250.771 78.3306ZM261.591 63.0585C262.358 62.9919 263.132 62.9378 263.915 62.8962C264.698 62.8547 265.498 62.8339 266.314 62.8339C267.13 62.8339 267.968 62.917 268.826 63.0834C269.684 63.2498 270.458 63.5617 271.15 64.0192C271.841 64.4767 272.403 65.113 272.836 65.9282C273.269 66.7434 273.486 67.7998 273.486 69.0974C273.486 70.3951 273.269 71.4473 272.836 72.2542C272.403 73.061 271.845 73.6974 271.162 74.1632C270.479 74.629 269.717 74.9451 268.876 75.1115C268.034 75.2778 267.205 75.361 266.389 75.361L265.789 75.3361C265.589 75.3361 265.406 75.3277 265.24 75.3111V81.0756C264.923 81.1255 264.615 81.1588 264.315 81.1754C264.015 81.192 263.728 81.2004 263.453 81.2004C263.178 81.2004 262.882 81.192 262.566 81.1754C262.249 81.1588 261.924 81.1255 261.591 81.0756V63.0585ZM265.24 72.2916C265.44 72.3249 265.631 72.3415 265.814 72.3415H266.439C266.856 72.3415 267.264 72.2875 267.664 72.1793C268.063 72.0712 268.417 71.8923 268.726 71.6428C269.034 71.3932 269.28 71.0647 269.463 70.6571C269.646 70.2495 269.738 69.7421 269.738 69.1349C269.738 68.5276 269.646 68.0119 269.463 67.5877C269.28 67.1635 269.034 66.8224 268.726 66.5646C268.417 66.3067 268.063 66.1237 267.664 66.0156C267.264 65.9074 266.856 65.8534 266.439 65.8534H265.939C265.773 65.87 265.539 65.8949 265.24 65.9282V72.2916ZM276.16 63.1333C276.776 63.0335 277.372 62.9836 277.947 62.9836C278.521 62.9836 279.125 63.0335 279.758 63.1333V77.9313H285.981C286.031 78.2141 286.064 78.4845 286.081 78.7423C286.097 79.0002 286.106 79.2539 286.106 79.5035C286.106 79.753 286.097 80.0067 286.081 80.2646C286.064 80.5224 286.031 80.7928 285.981 81.0756H276.16V63.1333ZM288.48 63.1333H298.675C298.775 63.6324 298.825 64.1481 298.825 64.6805C298.825 65.2129 298.775 65.7286 298.675 66.2277H292.128V70.1206H297.326C297.426 70.6529 297.476 71.177 297.476 71.6927C297.476 72.2084 297.426 72.7242 297.326 73.2399H292.128V77.9812H298.85C298.95 78.4803 299 78.996 299 79.5284C299 80.0608 298.95 80.5765 298.85 81.0756H288.48V63.1333Z" fill="#181823"/>
<path d="M157.819 15.4512L139.252 52.5335H176.386L157.819 15.4512ZM157.819 22.3619L168.285 43.2629H154.273L155.82 40.1726H163.277L157.819 29.2708L149.267 46.3533H169.832L171.379 49.4432H144.26L157.819 22.3619Z" fill="#181823"/>
<path d="M188.323 39.8462C188.176 34.2618 188.225 28.3345 188.274 22.7991C188.274 21.0846 188.176 19.2231 188.176 17.5086C188.176 15.6471 187.44 15.7451 186.459 15.6961C185.037 15.6471 184.399 15.6471 182.976 15.6471C182.044 15.5981 181.652 15.8431 181.652 16.7738C181.652 21.5744 181.505 35.1435 181.554 37.103C181.603 39.0624 181.799 47.9778 181.701 49.9373C181.652 50.6231 181.701 51.3089 181.75 51.9947C181.799 52.2396 181.946 52.4845 182.339 52.4845C183.957 52.3866 185.478 52.3866 187.097 52.3376C187.686 52.2886 188.176 52.1416 188.421 51.5048C188.47 51.1619 188.323 42.1975 188.323 39.8462ZM199.409 48.8106C199.409 47.537 199.409 39.5033 199.459 38.8664C199.508 38.7195 199.606 38.4256 199.802 38.4256C199.998 38.4256 200.096 38.5235 200.145 38.6705C202.107 42.4914 203.824 46.3123 205.59 50.0352C205.836 50.5741 206.375 52.1416 206.522 52.2886C206.719 52.5825 207.062 52.4845 207.356 52.4845L212.752 52.5335C213.39 52.5335 213.537 52.1416 213.39 51.6028C212.997 50.1332 210.201 44.9407 209.564 43.6671C209.122 42.6874 206.179 37.005 206.081 36.5641C205.983 36.3682 206.719 36.0253 206.817 35.8783C209.171 33.7719 211.281 31.6165 211.722 28.3345C212.213 25.1014 211.477 21.5744 209.367 18.9782C207.749 17.0677 205.639 15.941 203.138 15.7941C201.617 15.6961 200.145 15.8431 198.625 15.7941C197.3 15.7451 196.368 15.7451 194.7 15.7451C193.915 15.7451 193.425 16.186 193.376 17.0187V17.6066C193.278 21.3785 193.376 25.1504 193.425 28.8733C193.425 34.5557 193.327 49.5454 193.327 51.7008C193.327 52.3376 193.425 52.4845 194.014 52.4845C194.357 52.4845 194.749 52.5335 195.093 52.5335C196.466 52.5335 197.3 52.4845 198.723 52.4845C199.802 52.4845 199.409 50.721 199.409 48.8106ZM199.409 29.7061L199.459 24.7585C199.508 24.0237 199.262 22.5541 199.949 22.0153C200.881 21.3295 202.794 22.0153 203.628 22.6031C206.081 24.2686 205.885 28.3835 204.56 30.6858C203.922 31.7635 202.843 32.4003 201.617 32.7432C200.881 32.9391 199.508 33.1841 199.459 32.0084C199.459 31.2246 199.409 29.7061 199.409 29.7061ZM218.344 20.5457C218.295 23.5828 218.59 45.7735 218.541 47.39C218.541 48.9086 218.541 50.4271 218.59 51.9457C218.59 52.1906 218.737 52.4356 218.982 52.4356C222.416 52.5825 225.801 52.2886 229.234 52.3376C230.363 52.3866 231.491 52.3376 232.57 52.3376C233.649 52.2886 233.747 51.8477 233.698 50.966C233.649 49.5944 233.649 48.3697 233.649 47.0471C233.6 46.3613 233.208 46.1164 232.619 46.1164C230.608 46.1654 228.597 46.0674 226.585 46.1654C226.242 46.2143 225.899 46.2143 225.555 46.2143C224.967 46.1654 224.819 46.0184 224.77 45.3816V44.6468C224.623 40.581 224.918 36.3682 224.918 32.3023C224.869 28.8733 224.918 25.7872 224.869 22.7501C224.869 21.4275 224.869 20.1048 224.819 18.8312C224.77 18.0474 224.819 17.2147 224.623 16.4309C224.525 16.137 224.378 15.7451 224.035 15.7451H219.424C218.639 15.7451 218.393 16.2839 218.344 17.0677V20.5457ZM245.373 39.8462C245.226 34.2618 245.275 28.3345 245.324 22.7991C245.324 21.0846 245.226 19.2231 245.226 17.5086C245.226 15.6471 244.49 15.7451 243.509 15.6961C242.087 15.6471 241.449 15.6471 240.026 15.6471C239.094 15.5981 238.702 15.8431 238.702 16.7738C238.702 21.5744 238.555 35.1435 238.604 37.103C238.653 39.0624 238.849 47.9778 238.751 49.9373C238.702 50.6231 238.751 51.3089 238.8 51.9947C238.849 52.2396 238.996 52.4845 239.389 52.4845C241.007 52.3866 242.528 52.3866 244.147 52.3376C244.735 52.2886 245.226 52.1416 245.471 51.5048C245.52 51.1619 245.373 42.1975 245.373 39.8462ZM271.274 16.8718C271.421 17.5576 271.323 50.1822 271.323 51.015C271.323 52.4845 270.783 52.4356 269.802 52.4356C268.33 52.4356 266.27 52.6805 265.829 52.1906C265.436 51.8477 258.176 34.3597 257.146 32.1554C257.048 31.9594 256.803 31.4696 256.607 31.5675C256.361 31.6655 256.459 32.0084 256.459 32.2044C256.41 33.9189 256.705 48.7126 256.705 51.0639C256.705 52.2396 256.656 52.4356 255.674 52.4356H253.222C252.584 52.4356 251.799 52.3866 251.162 52.4845C250.671 52.4845 250.426 52.3376 250.377 51.8477V47.9778C250.475 43.863 250.377 19.468 250.377 17.6555C250.377 16.088 250.818 15.7941 252.388 15.7941C253.467 15.7451 254.546 15.7451 255.625 15.7451C255.969 15.7451 256.165 15.7941 256.361 16.2349C257.686 19.3211 263.327 33.478 264.21 35.1925C264.357 35.5354 264.897 36.907 265.191 37.054H265.24C265.436 36.858 265.387 35.8783 265.387 35.5844C265.387 34.8496 264.995 17.6555 264.995 17.3126C264.995 16.8228 264.848 16.3819 265.093 16.039C265.24 15.8431 265.878 15.7941 266.123 15.7451C267.497 15.6471 269.115 15.7941 270.489 15.7451C271.176 15.7451 271.127 16.2349 271.274 16.8718ZM276.326 42.4424H276.277C276.277 43.6671 276.228 44.9407 276.277 46.2143C276.326 47.7819 276.424 49.3494 276.522 50.917C276.522 51.4558 276.67 51.6028 277.16 51.7008C278.19 51.9457 279.171 51.9947 280.202 51.9947C282.85 51.8967 285.499 52.0927 288.148 51.9947C289.227 51.9457 289.718 52.0437 290.797 51.8477C291.778 51.6518 292.122 51.1129 292.122 49.6434C292.024 48.7126 292.073 48.3207 292.073 47.1941C292.073 45.5775 290.944 45.0387 289.963 45.0877C289.277 45.1367 285.99 45.0387 284.665 45.0387C282.458 45.0877 282.801 45.3816 282.801 43.0792C282.801 41.2178 282.85 38.8175 282.85 36.907C282.85 35.8783 282.949 35.5354 283.93 35.5354H290.061C291.043 35.6824 291.729 34.9966 291.729 33.9679C291.729 32.9392 291.827 32.8902 291.827 31.8615L291.68 30.3919C291.582 29.5591 291.288 29.2652 290.454 29.2652C289.914 29.2652 289.375 29.3142 288.835 29.3632C286.726 29.5101 285.745 29.2162 283.684 29.3632C282.998 29.3632 282.9 29.2652 282.85 28.6284C282.654 26.7179 282.85 24.6115 283.047 22.7011C283.096 21.9173 283.292 21.7704 284.028 21.7214L290.944 21.6724C291.876 21.5744 292.171 21.6234 292.122 20.6927C292.024 19.2721 292.171 17.8025 292.024 16.3819C291.925 15.5981 291.68 15.4512 290.797 15.4512C289.326 15.5002 288.982 15.5002 287.511 15.5981C286.039 15.6471 280.152 15.6471 278.73 15.6471C276.67 15.6471 276.522 15.5002 276.473 17.9984C276.375 19.9579 276.424 21.9663 276.424 23.9747C276.424 27.4037 276.228 39.6992 276.326 42.4424Z" fill="#181823"/>
</g>
<defs>
<clipPath id="clip0_45_118">
<rect width="299" height="95.7961" fill="white"/>
</clipPath>
</defs>
</svg>
